# xmcd CD database file
#
# Track frame offsets:
#	150
#	3124
#	12869
#	24103
#	38543
#	63801
#	76206
#	101030
#	112205
#	122274
#	137013
#	149346
#	171226
#	182871
#	194883
#	219083
#
# Disc length: 3409 seconds
#
# Revision: 0
# Processed by: cddbd v1.5.2PL0 Copyright (c) Steve Scherf et al.
# Submitted via: CDex 1.51
#
DISCID=cc0d4f10
DTITLE=Fanfare Détournée - Mademoiselle Brindamante
DYEAR=2010
DGENRE=Brass Band
TTITLE0=Rendez-vous
TTITLE1=Les Victor de la musique
TTITLE2=Fais pas ton kelzmer
TTITLE3=La bicyclette
TTITLE4=Remzelk
TTITLE5=Vieille canaille
TTITLE6=Mademoiselle Brindamante
TTITLE7=La Brabançonne toujours deux fois
TTITLE8=Le chef n'aime pas la musique
TTITLE9=Es ist genug and Chibolet Basade
TTITLE10=La tarentelle des poules du premier rang
TTITLE11=Jeanne
TTITLE12=Eu égard à la sinistrose de ce début de siècle, il serait bon de ne pas négliger la globalité des alternatives déjà en notre possesseion
TTITLE13=Sex bomb
TTITLE14=St-James infirmary
TTITLE15=Mademoiselle
EXTD=YEAR: 2010
EXTT0=
EXTT1=
EXTT2=
EXTT3=
EXTT4=
EXTT5=
EXTT6=
EXTT7=
EXTT8=
EXTT9=
EXTT10=
EXTT11=
EXTT12=
EXTT13=
EXTT14=
EXTT15=
PLAYORDER=
